<svg xmlns="http://www.w3.org/2000/svg" width="23.97" height="23.969" viewBox="0 0 23.97 23.969">
  <defs>
    <style>
      .cls-1 {
        fill: #fff;
        fill-rule: evenodd;
      }
    </style>
  </defs>
  <path id="Rectangle_5_copy_4" data-name="Rectangle 5 copy 4" class="cls-1" d="M2235.46,35.908l-20.51-20.391a1.692,1.692,0,0,0-2.45.041,1.825,1.825,0,0,0,.04,2.531l20.51,20.392a1.692,1.692,0,0,0,2.45-.039A1.829,1.829,0,0,0,2235.46,35.908Z" transform="translate(-2212.03 -15.031)"/>
  <path id="Rectangle_5_copy_5" data-name="Rectangle 5 copy 5" class="cls-1" d="M2212.54,35.908l20.51-20.391a1.692,1.692,0,0,1,2.45.041,1.825,1.825,0,0,1-.04,2.531l-20.51,20.392a1.692,1.692,0,0,1-2.45-.039A1.829,1.829,0,0,1,2212.54,35.908Z" transform="translate(-2212.03 -15.031)"/>
</svg>
